Seven.ufo
<glyph name="zero" format="1">
  <advance width="757"/>
  <unicode hex="0030"/>
  <outline>
    <contour>
      <point x="379.0" y="844.0" type="curve" smooth="yes"/>
      <point x="192.704821504" y="844.0"/>
      <point x="113.0" y="686.0"/>
      <point x="113.0" y="440.0" type="curve" smooth="yes"/>
      <point x="113.0" y="184.0"/>
      <point x="192.704821504" y="36.0"/>
      <point x="379.0" y="36.0" type="curve" smooth="yes"/>
      <point x="562.966488764" y="36.0"/>
      <point x="644.0" y="184.0"/>
      <point x="644.0" y="440.0" type="curve" smooth="yes"/>
      <point x="644.0" y="696.0"/>
      <point x="562.966488764" y="844.0"/>
    </contour>
    <contour>
      <point x="379.0" y="900.0" type="curve" smooth="yes"/>
      <point x="594.687333798" y="900.0"/>
      <point x="706.0" y="736.0"/>
      <point x="706.0" y="440.0" type="curve" smooth="yes"/>
      <point x="706.0" y="144.0"/>
      <point x="594.687333798" y="-20.0"/>
      <point x="379.0" y="-20.0" type="curve" smooth="yes"/>
      <point x="161.778623478" y="-20.0"/>
      <point x="51.0" y="143.0"/>
      <point x="51.0" y="440.0" type="curve" smooth="yes"/>
      <point x="51.0" y="727.0"/>
      <point x="161.778623478" y="900.0"/>
    </contour>
  </outline>
</glyph>
<glyph name="two" format="1">
  <advance width="714"/>
  <unicode hex="0032"/>
  <outline>
    <contour>
      <point x="62" y="0" type="line"/>
      <point x="62" y="53" type="line" smooth="yes"/>
      <point x="62" y="330"/>
      <point x="582" y="382"/>
      <point x="582" y="656" type="curve" smooth="yes"/>
      <point x="582" y="770"/>
      <point x="514" y="844"/>
      <point x="353" y="844" type="curve" smooth="yes"/>
      <point x="275" y="844"/>
      <point x="190" y="824"/>
      <point x="149" y="760" type="curve"/>
      <point x="92" y="786" type="line"/>
      <point x="140" y="873"/>
      <point x="252" y="900"/>
      <point x="353" y="900" type="curve" smooth="yes"/>
      <point x="556" y="900"/>
      <point x="643" y="801"/>
      <point x="643" y="653" type="curve" smooth="yes"/>
      <point x="643" y="342"/>
      <point x="112" y="297"/>
      <point x="112" y="33" type="curve"/>
      <point x="88" y="56" type="line"/>
      <point x="640" y="56" type="line"/>
      <point x="640" y="0" type="line"/>
    </contour>
  </outline>
</glyph>
<glyph name="six" format="1">
  <advance width="714"/>
  <unicode hex="0036"/>
  <outline>
    <contour>
      <point x="114" y="387" type="line"/>
      <point x="155" y="501"/>
      <point x="237" y="556"/>
      <point x="371" y="556" type="curve" smooth="yes"/>
      <point x="557" y="556"/>
      <point x="666" y="465"/>
      <point x="666" y="268" type="curve" smooth="yes"/>
      <point x="666" y="90"/>
      <point x="565" y="-20"/>
      <point x="371" y="-20" type="curve" smooth="yes"/>
      <point x="164" y="-20"/>
      <point x="76" y="95"/>
      <point x="76" y="268" type="curve" smooth="yes"/>
      <point x="76" y="556" type="line" smooth="yes"/>
      <point x="76" y="806"/>
      <point x="217" y="900"/>
      <point x="390" y="900" type="curve" smooth="yes"/>
      <point x="472" y="900"/>
      <point x="567" y="877"/>
      <point x="620" y="814" type="curve"/>
      <point x="585" y="772" type="line"/>
      <point x="541" y="822"/>
      <point x="459" y="844"/>
      <point x="390" y="844" type="curve" smooth="yes"/>
      <point x="247" y="844"/>
      <point x="138" y="764"/>
      <point x="138" y="556" type="curve" smooth="yes"/>
      <point x="138" y="380" type="line"/>
    </contour>
    <contour>
      <point x="138" y="268" type="curve" smooth="yes"/>
      <point x="138" y="126"/>
      <point x="209" y="36"/>
      <point x="371" y="36" type="curve" smooth="yes"/>
      <point x="532" y="36"/>
      <point x="605" y="123"/>
      <point x="605" y="268" type="curve" smooth="yes"/>
      <point x="605" y="433"/>
      <point x="526" y="500"/>
      <point x="371" y="500" type="curve" smooth="yes"/>
      <point x="213" y="500"/>
      <point x="138" y="396"/>
    </contour>
  </outline>
</glyph>
<glyph name="nine" format="1">
  <advance width="714"/>
  <unicode hex="0039"/>
  <outline>
    <contour>
      <point x="606" y="493" type="line"/>
      <point x="565" y="379"/>
      <point x="483" y="324"/>
      <point x="349" y="324" type="curve" smooth="yes"/>
      <point x="163" y="324"/>
      <point x="54" y="415"/>
      <point x="54" y="612" type="curve" smooth="yes"/>
      <point x="54" y="790"/>
      <point x="155" y="900"/>
      <point x="349" y="900" type="curve" smooth="yes"/>
      <point x="556" y="900"/>
      <point x="644" y="785"/>
      <point x="644" y="612" type="curve" smooth="yes"/>
      <point x="644" y="324" type="line" smooth="yes"/>
      <point x="644" y="74"/>
      <point x="503" y="-20"/>
      <point x="330" y="-20" type="curve" smooth="yes"/>
      <point x="248" y="-20"/>
      <point x="153" y="3"/>
      <point x="100" y="66" type="curve"/>
      <point x="135" y="108" type="line"/>
      <point x="179" y="58"/>
      <point x="261" y="36"/>
      <point x="330" y="36" type="curve" smooth="yes"/>
      <point x="473" y="36"/>
      <point x="582" y="116"/>
      <point x="582" y="324" type="curve" smooth="yes"/>
      <point x="582" y="500" type="line"/>
    </contour>
    <contour>
      <point x="582" y="612" type="curve" smooth="yes"/>
      <point x="582" y="754"/>
      <point x="511" y="844"/>
      <point x="349" y="844" type="curve" smooth="yes"/>
      <point x="188" y="844"/>
      <point x="115" y="757"/>
      <point x="115" y="612" type="curve" smooth="yes"/>
      <point x="115" y="447"/>
      <point x="194" y="380"/>
      <point x="349" y="380" type="curve" smooth="yes"/>
      <point x="507" y="380"/>
      <point x="582" y="484"/>
    </contour>
  </outline>
</glyph>
<glyph name="C" format="1">
  <advance width="875"/>
  <unicode hex="0043"/>
  <outline>
    <contour>
      <point x="813" y="719" type="curve"/>
      <point x="757" y="690" type="line"/>
      <point x="701.234" y="790.378"/>
      <point x="593.5" y="844"/>
      <point x="467" y="844" type="curve" smooth="yes"/>
      <point x="232.847" y="844"/>
      <point x="128" y="669.471"/>
      <point x="128" y="440" type="curve" smooth="yes"/>
      <point x="128" y="210.783"/>
      <point x="232.555" y="36"/>
      <point x="467" y="36" type="curve" smooth="yes"/>
      <point x="593.473" y="36"/>
      <point x="701.179" y="89.5219"/>
      <point x="757" y="190" type="curve"/>
      <point x="813" y="161" type="line"/>
      <point x="745.63" y="41.8077"/>
      <point x="619.034" y="-20"/>
      <point x="467" y="-20" type="curve" smooth="yes"/>
      <point x="195.481" y="-20"/>
      <point x="66" y="172.655"/>
      <point x="66" y="440" type="curve" smooth="yes"/>
      <point x="66" y="707.04"/>
      <point x="195.147" y="900"/>
      <point x="467" y="900" type="curve" smooth="yes"/>
      <point x="618.998" y="900"/>
      <point x="745.561" y="838.315"/>
    </contour>
  </outline>
</glyph>
<glyph name="J" format="1">
  <advance width="667"/>
  <unicode hex="004A"/>
  <outline>
    <contour>
      <point x="571.0" y="880.0" type="line"/>
      <point x="571.0" y="289.0" type="line" smooth="yes"/>
      <point x="571.0" y="109.0"/>
      <point x="501.0" y="-20.0"/>
      <point x="281.0" y="-20.0" type="curve" smooth="yes"/>
      <point x="141.0" y="-20.0"/>
      <point x="56.1365107365" y="34.1700990536"/>
      <point x="14.0" y="136.0" type="curve"/>
      <point x="73.0" y="159.0" type="line"/>
      <point x="102.160796543" y="78.8078095061"/>
      <point x="176.0" y="36.0"/>
      <point x="281.0" y="36.0" type="curve" smooth="yes"/>
      <point x="451.0" y="36.0"/>
      <point x="510.0" y="137.0"/>
      <point x="510.0" y="289.0" type="curve" smooth="yes"/>
      <point x="510.0" y="880.0" type="line"/>
    </contour>
  </outline>
</glyph>
<glyph name="N" format="1">
  <advance width="841"/>
  <unicode hex="004E"/>
  <outline>
    <contour>
      <point x="96" y="0" type="line"/>
      <point x="96" y="880" type="line"/>
      <point x="175" y="880" type="line"/>
      <point x="713" y="24" type="line"/>
      <point x="689" y="12" type="line"/>
      <point x="689" y="880" type="line"/>
      <point x="745" y="880" type="line"/>
      <point x="745" y="0" type="line"/>
      <point x="668" y="0" type="line"/>
      <point x="126" y="855" type="line"/>
      <point x="152" y="865" type="line"/>
      <point x="152" y="0" type="line"/>
    </contour>
  </outline>
</glyph>
<glyph name="P" format="1">
  <advance width="714"/>
  <unicode hex="0050"/>
  <outline>
    <contour>
      <point x="387.0" y="824.0" type="line" smooth="yes"/>
      <point x="522.0" y="824.0"/>
      <point x="604.0" y="782.0"/>
      <point x="604.0" y="662.0" type="curve" smooth="yes"/>
      <point x="604.0" y="543.0"/>
      <point x="541.0" y="484.0"/>
      <point x="387.0" y="484.0" type="curve" smooth="yes"/>
      <point x="132.0" y="484.0" type="line"/>
      <point x="158.0" y="462.0" type="line"/>
      <point x="158.0" y="858.0" type="line"/>
      <point x="132.0" y="824.0" type="line"/>
    </contour>
    <contour>
      <point x="387.0" y="431.0" type="line" smooth="yes"/>
      <point x="640.0" y="431.0"/>
      <point x="665.0" y="576.0"/>
      <point x="665.0" y="662.0" type="curve" smooth="yes"/>
      <point x="665.0" y="821.0"/>
      <point x="540.0" y="880.0"/>
      <point x="387.0" y="880.0" type="curve" smooth="yes"/>
      <point x="96.0" y="880.0" type="line"/>
      <point x="96.0" y="0.0" type="line"/>
      <point x="158.0" y="0.0" type="line"/>
      <point x="158.0" y="457.0" type="line"/>
      <point x="131.0" y="431.0" type="line"/>
    </contour>
  </outline>
</glyph>
<glyph name="R" format="1">
  <advance width="740"/>
  <unicode hex="0052"/>
  <outline>
    <contour>
      <point x="364.0" y="430.0" type="curve"/>
      <point x="134.0" y="430.0" type="line"/>
      <point x="158.0" y="455.0" type="line"/>
      <point x="158.0" y="0.0" type="line"/>
      <point x="96.0" y="0.0" type="line"/>
      <point x="96.0" y="880.0" type="line"/>
      <point x="398.0" y="880.0" type="line" smooth="yes"/>
      <point x="565.0" y="880.0"/>
      <point x="677.0" y="825.0"/>
      <point x="677.0" y="662.0" type="curve" smooth="yes"/>
      <point x="677.0" y="461.0"/>
      <point x="526.0" y="430.0"/>
    </contour>
    <contour>
      <point x="158.0" y="849.0" type="line"/>
      <point x="158.0" y="464.0" type="line"/>
      <point x="133.0" y="486.0" type="line"/>
      <point x="395.0" y="486.0" type="line" smooth="yes"/>
      <point x="553.0" y="486.0"/>
      <point x="616.0" y="537.0"/>
      <point x="616.0" y="662.0" type="curve" smooth="yes"/>
      <point x="616.0" y="786.0"/>
      <point x="527.0" y="824.0"/>
      <point x="398.0" y="824.0" type="curve" smooth="yes"/>
      <point x="133.0" y="824.0" type="line"/>
    </contour>
    <contour>
      <point x="690.0" y="0.0" type="line"/>
      <point x="621.0" y="0.0" type="line"/>
      <point x="444.0" y="470.0" type="line"/>
      <point x="506.0" y="470.0" type="line"/>
    </contour>
  </outline>
</glyph>
<glyph name="W" format="1">
  <advance width="1157"/>
  <unicode hex="0057"/>
  <outline>
    <contour>
      <point x="346.0" y="0.0" type="line"/>
      <point x="593.0" y="841.0" type="line"/>
      <point x="566.0" y="841.0" type="line"/>
      <point x="818.0" y="0.0" type="line"/>
      <point x="898.0" y="0.0" type="line"/>
      <point x="1127.0" y="880.0" type="line"/>
      <point x="1069.0" y="880.0" type="line"/>
      <point x="846.0" y="22.0" type="line"/>
      <point x="869.0" y="22.0" type="line"/>
      <point x="615.0" y="880.0" type="line"/>
      <point x="551.0" y="880.0" type="line"/>
      <point x="294.0" y="22.0" type="line"/>
      <point x="317.0" y="22.0" type="line"/>
      <point x="94.0" y="880.0" type="line"/>
      <point x="30.0" y="880.0" type="line"/>
      <point x="265.0" y="0.0" type="line"/>
    </contour>
  </outline>
</glyph>
<glyph name="Y" format="1">
  <advance width="715"/>
  <unicode hex="0059"/>
  <outline>
    <contour>
      <point x="30" y="880" type="line"/>
      <point x="101" y="880" type="line"/>
      <point x="376" y="484" type="line"/>
      <point x="341" y="484" type="line"/>
      <point x="618" y="880" type="line"/>
      <point x="685" y="880" type="line"/>
      <point x="365" y="425" type="line"/>
      <point x="388" y="493" type="line"/>
      <point x="388" y="0" type="line"/>
      <point x="327" y="0" type="line"/>
      <point x="327" y="492" type="line"/>
      <point x="347" y="430" type="line"/>
    </contour>
  </outline>
</glyph>
<glyph name="Z" format="1">
  <advance width="751"/>
  <unicode hex="005A"/>
  <outline>
    <contour>
      <point x="52" y="824" type="line"/>
      <point x="52" y="880" type="line"/>
      <point x="705" y="880" type="line"/>
      <point x="705" y="811" type="line"/>
      <point x="84" y="30" type="line"/>
      <point x="69" y="56" type="line"/>
      <point x="707" y="56" type="line"/>
      <point x="707" y="0" type="line"/>
      <point x="55" y="0" type="line"/>
      <point x="36" y="71" type="line"/>
      <point x="664" y="850" type="line"/>
      <point x="676" y="824" type="line"/>
    </contour>
  </outline>
</glyph>
<glyph name="a" format="1">
  <advance width="598"/>
  <unicode hex="0061"/>
  <outline>
    <contour>
      <point x="260.0" y="-20.0" type="curve" smooth="yes"/>
      <point x="381.0" y="-20.0"/>
      <point x="465.0" y="56.0"/>
      <point x="494.0" y="87.0" type="curve"/>
      <point x="470.0" y="91.0" type="line"/>
      <point x="479.0" y="0.0" type="line"/>
      <point x="532.0" y="0.0" type="line"/>
      <point x="532.0" y="473.0" type="line" smooth="yes"/>
      <point x="532.0" y="592.0"/>
      <point x="418.0" y="631.0"/>
      <point x="297.0" y="631.0" type="curve" smooth="yes"/>
      <point x="210.0" y="631.0"/>
      <point x="115.0" y="613.0"/>
      <point x="76.0" y="551.0" type="curve"/>
      <point x="116.0" y="518.0" type="line"/>
      <point x="155.0" y="564.0"/>
      <point x="224.0" y="578.0"/>
      <point x="297.0" y="578.0" type="curve" smooth="yes"/>
      <point x="381.0" y="578.0"/>
      <point x="470.0" y="555.0"/>
      <point x="470.0" y="473.0" type="curve" smooth="yes"/>
      <point x="470.0" y="339.0" type="line"/>
      <point x="500.0" y="356.0" type="line"/>
      <point x="292.0" y="356.0" type="line" smooth="yes"/>
      <point x="149.0" y="356.0"/>
      <point x="56.0" y="316.0"/>
      <point x="56.0" y="182.0" type="curve" smooth="yes"/>
      <point x="56.0" y="55.0"/>
      <point x="148.0" y="-20.0"/>
    </contour>
    <contour>
      <point x="275" y="34" type="curve" smooth="yes"/>
      <point x="194" y="34"/>
      <point x="118" y="70"/>
      <point x="118" y="182" type="curve" smooth="yes"/>
      <point x="118" y="283"/>
      <point x="186" y="303"/>
      <point x="292" y="303" type="curve" smooth="yes"/>
      <point x="495" y="303" type="line"/>
      <point x="470" y="326" type="line"/>
      <point x="470" y="105" type="line"/>
      <point x="493" y="150" type="line"/>
      <point x="450" y="97"/>
      <point x="355" y="34"/>
    </contour>
  </outline>
</glyph>
<glyph name="b" format="1">
  <advance width="686"/>
  <unicode hex="0062"/>
  <outline>
    <contour>
      <point x="351" y="-19" type="curve" smooth="yes"/>
      <point x="542" y="-19"/>
      <point x="628" y="120"/>
      <point x="628" y="306" type="curve" smooth="yes"/>
      <point x="628" y="505"/>
      <point x="543" y="631"/>
      <point x="348" y="631" type="curve" smooth="yes"/>
      <point x="240" y="631"/>
      <point x="139" y="563"/>
      <point x="118" y="474" type="curve"/>
      <point x="131" y="471" type="line"/>
      <point x="131.0" y="880.0" type="line"/>
      <point x="69.0" y="880.0" type="line"/>
      <point x="69.0" y="0.0" type="line"/>
      <point x="121" y="0" type="line"/>
      <point x="131" y="132" type="line"/>
      <point x="121" y="126" type="line"/>
      <point x="144" y="48"/>
      <point x="211" y="-19"/>
    </contour>
    <contour>
      <point x="351" y="34" type="curve" smooth="yes"/>
      <point x="213" y="34"/>
      <point x="131" y="116"/>
      <point x="131.0" y="304.0" type="curve"/>
      <point x="131" y="481"/>
      <point x="207" y="578"/>
      <point x="348" y="578" type="curve" smooth="yes"/>
      <point x="510" y="578"/>
      <point x="567" y="459"/>
      <point x="567" y="306" type="curve" smooth="yes"/>
      <point x="567" y="153"/>
      <point x="512" y="34"/>
    </contour>
  </outline>
</glyph>
<glyph name="c" format="1">
  <advance width="587"/>
  <unicode hex="0063"/>
  <outline>
    <contour>
      <point x="339" y="34" type="curve"/>
      <point x="203" y="34"/>
      <point x="114" y="121"/>
      <point x="114" y="307" type="curve" smooth="yes"/>
      <point x="114" y="498"/>
      <point x="209" y="578"/>
      <point x="345" y="578" type="curve" smooth="yes"/>
      <point x="454" y="578"/>
      <point x="491" y="532"/>
      <point x="522" y="470" type="curve"/>
      <point x="567" y="494" type="line"/>
      <point x="525" y="585"/>
      <point x="469" y="631"/>
      <point x="345" y="631" type="curve" smooth="yes"/>
      <point x="177" y="631"/>
      <point x="52" y="538"/>
      <point x="52" y="307" type="curve" smooth="yes"/>
      <point x="52" y="77"/>
      <point x="171" y="-19"/>
      <point x="339" y="-19" type="curve"/>
      <point x="418" y="-19"/>
      <point x="504" y="5"/>
      <point x="554" y="64" type="curve"/>
      <point x="520" y="104" type="line"/>
      <point x="482" y="57"/>
      <point x="421" y="34"/>
    </contour>
  </outline>
</glyph>
<glyph name="f" format="1">
  <advance width="385.0"/>
  <unicode hex="0066"/>
  <outline>
    <contour>
      <point x="374.0" y="770" type="line"/>
      <point x="352.0" y="781"/>
      <point x="328.0" y="794"/>
      <point x="280.0" y="794.0" type="curve" smooth="yes"/>
      <point x="232.0" y="794"/>
      <point x="204.0" y="772.0"/>
      <point x="204.0" y="704.0" type="curve" smooth="yes"/>
      <point x="204.0" y="592.0" type="line"/>
      <point x="177.0" y="612.0" type="line"/>
      <point x="359.0" y="612.0" type="line"/>
      <point x="359.0" y="560.0" type="line"/>
      <point x="177.0" y="560.0" type="line"/>
      <point x="204.0" y="580.0" type="line"/>
      <point x="204.0" y="0.0" type="line"/>
      <point x="142.0" y="0.0" type="line"/>
      <point x="142.0" y="580.0" type="line"/>
      <point x="163.0" y="560.0" type="line"/>
      <point x="32.0" y="560.0" type="line"/>
      <point x="32.0" y="612.0" type="line"/>
      <point x="161.0" y="612.0" type="line"/>
      <point x="142.0" y="592.0" type="line"/>
      <point x="142.0" y="704.0" type="line" smooth="yes"/>
      <point x="142.0" y="803.0"/>
      <point x="200.0" y="847"/>
      <point x="280.0" y="847.0" type="curve" smooth="yes"/>
      <point x="331.0" y="847"/>
      <point x="362.0" y="829"/>
      <point x="389.0" y="816" type="curve"/>
    </contour>
  </outline>
</glyph>
<glyph name="j" format="1">
  <advance width="300"/>
  <unicode hex="006A"/>
  <outline>
    <contour>
      <point x="63" y="-223" type="line" smooth="yes"/>
      <point x="144" y="-223"/>
      <point x="224" y="-179"/>
      <point x="224" y="-76" type="curve"/>
      <point x="224" y="0" type="line"/>
      <point x="162" y="0" type="line"/>
      <point x="162" y="-68" type="line"/>
      <point x="162" y="-142"/>
      <point x="118" y="-172"/>
      <point x="59" y="-172" type="curve" smooth="yes"/>
      <point x="-16" y="-172" type="line"/>
      <point x="-16" y="-222" type="line"/>
    </contour>
    <component base="i" xOffset="52"/>
  </outline>
</glyph>
<glyph name="p" format="1">
  <advance width="688"/>
  <unicode hex="0070"/>
  <outline>
    <contour>
      <point x="119.0" y="144.0" type="line"/>
      <point x="145.0" y="64.0"/>
      <point x="221.0" y="-19.0"/>
      <point x="353.0" y="-19.0" type="curve" smooth="yes"/>
      <point x="537.0" y="-19.0"/>
      <point x="634.0" y="108.0"/>
      <point x="634.0" y="307.0" type="curve" smooth="yes"/>
      <point x="634.0" y="504.0"/>
      <point x="542.0" y="631.0"/>
      <point x="353.0" y="631.0" type="curve" smooth="yes"/>
      <point x="217.0" y="631.0"/>
      <point x="144.0" y="542.0"/>
      <point x="122.0" y="486.0" type="curve"/>
      <point x="132.0" y="486.0" type="line"/>
      <point x="119.0" y="612.0" type="line"/>
      <point x="70.0" y="612.0" type="line"/>
      <point x="70.0" y="-245.0" type="line"/>
      <point x="132.0" y="-245.0" type="line"/>
      <point x="132.0" y="152.0" type="line"/>
    </contour>
    <contour>
      <point x="132.0" y="306.0" type="curve"/>
      <point x="132.0" y="514.0"/>
      <point x="237.0" y="578.0"/>
      <point x="353.0" y="578.0" type="curve" smooth="yes"/>
      <point x="514.0" y="578.0"/>
      <point x="573.0" y="461.0"/>
      <point x="573.0" y="307.0" type="curve" smooth="yes"/>
      <point x="573.0" y="153.0"/>
      <point x="515.0" y="34.0"/>
      <point x="353.0" y="34.0" type="curve" smooth="yes"/>
      <point x="228.0" y="34.0"/>
      <point x="132.0" y="112.0"/>
    </contour>
  </outline>
</glyph>
<glyph name="q" format="1">
  <advance width="686"/>
  <unicode hex="0071"/>
  <outline>
    <contour>
      <point x="617.0" y="-245.0" type="line"/>
      <point x="617.0" y="612.0" type="line"/>
      <point x="565.0" y="612.0" type="line"/>
      <point x="555.0" y="468.0" type="line"/>
      <point x="575.0" y="466.0" type="line"/>
      <point x="543.0" y="559.0"/>
      <point x="468.0" y="631.0"/>
      <point x="340.0" y="631.0" type="curve" smooth="yes"/>
      <point x="141.0" y="631.0"/>
      <point x="52.0" y="505.0"/>
      <point x="52.0" y="306.0" type="curve" smooth="yes"/>
      <point x="52.0" y="109.0"/>
      <point x="140.0" y="-19.0"/>
      <point x="339.0" y="-19.0" type="curve" smooth="yes"/>
      <point x="443.0" y="-19.0"/>
      <point x="547.0" y="30.0"/>
      <point x="579.0" y="157.0" type="curve"/>
      <point x="555.0" y="161.0" type="line"/>
      <point x="555.0" y="-245.0" type="line"/>
    </contour>
    <contour>
      <point x="335.0" y="34.0" type="curve" smooth="yes"/>
      <point x="174.0" y="34.0"/>
      <point x="113.0" y="153.0"/>
      <point x="113.0" y="306.0" type="curve" smooth="yes"/>
      <point x="113.0" y="459.0"/>
      <point x="173.0" y="578.0"/>
      <point x="335.0" y="578.0" type="curve" smooth="yes"/>
      <point x="476.0" y="578.0"/>
      <point x="555.0" y="480.0"/>
      <point x="555.0" y="307.0" type="curve" smooth="yes"/>
      <point x="555.0" y="72.0"/>
      <point x="455.0" y="34.0"/>
    </contour>
  </outline>
</glyph>
<glyph name="s" format="1">
  <advance width="571"/>
  <unicode hex="0073"/>
  <outline>
    <contour>
      <point x="111" y="103" type="line"/>
      <point x="140" y="51"/>
      <point x="219" y="34"/>
      <point x="286" y="34" type="curve" smooth="yes"/>
      <point x="405" y="34"/>
      <point x="473" y="78"/>
      <point x="473" y="162" type="curve" smooth="yes"/>
      <point x="473" y="262"/>
      <point x="428" y="285"/>
      <point x="286" y="285" type="curve" smooth="yes"/>
      <point x="117" y="285"/>
      <point x="47" y="343"/>
      <point x="47" y="456" type="curve" smooth="yes"/>
      <point x="47" y="571"/>
      <point x="128" y="631"/>
      <point x="289" y="631" type="curve" smooth="yes"/>
      <point x="394" y="631"/>
      <point x="471" y="612"/>
      <point x="513" y="541" type="curve"/>
      <point x="466" y="512" type="line"/>
      <point x="437" y="565"/>
      <point x="359" y="578"/>
      <point x="291" y="578" type="curve" smooth="yes"/>
      <point x="167" y="578"/>
      <point x="111" y="538"/>
      <point x="111" y="456" type="curve" smooth="yes"/>
      <point x="111" y="373"/>
      <point x="147" y="338"/>
      <point x="289" y="338" type="curve" smooth="yes"/>
      <point x="459" y="338"/>
      <point x="534" y="292"/>
      <point x="534" y="162" type="curve" smooth="yes"/>
      <point x="534" y="46"/>
      <point x="444" y="-19"/>
      <point x="287" y="-19" type="curve" smooth="yes"/>
      <point x="195" y="-19"/>
      <point x="101" y="3"/>
      <point x="61" y="73" type="curve"/>
    </contour>
  </outline>
</glyph>
<glyph name="v" format="1">
  <advance width="580"/>
  <unicode hex="0076"/>
  <outline>
    <contour>
      <point x="24" y="612" type="line"/>
      <point x="88" y="612" type="line"/>
      <point x="307" y="32" type="line"/>
      <point x="283" y="32" type="line"/>
      <point x="494" y="612" type="line"/>
      <point x="556" y="612" type="line"/>
      <point x="327" y="0" type="line"/>
      <point x="262" y="0" type="line"/>
    </contour>
  </outline>
</glyph>
<glyph name="x" format="1">
  <advance width="560.0"/>
  <unicode hex="0078"/>
  <outline>
    <contour>
      <point x="26.0" y="612.0" type="line"/>
      <point x="100.0" y="612.0" type="line"/>
      <point x="534.0" y="0.0" type="line"/>
      <point x="460.0" y="0.0" type="line"/>
    </contour>
    <contour>
      <point x="265.0" y="350" type="line"/>
      <point x="448.0" y="612" type="line"/>
      <point x="515.0" y="612" type="line"/>
      <point x="300.0" y="302" type="line"/>
      <point x="286.0" y="278" type="line"/>
      <point x="94.0" y="0" type="line"/>
      <point x="26.0" y="0" type="line"/>
      <point x="252.0" y="326" type="line"/>
    </contour>
  </outline>
</glyph>
